<svg width="17" height="16" viewBox="0 0 17 16" fill="none" xmlns="http://www.w3.org/2000/svg">
<mask id="mask0_2102_784" style="mask-type:alpha" maskUnits="userSpaceOnUse" x="4" y="5" width="10" height="7">
<path d="M7.20688 10.5619L5.30775 8.66279C5.2055 8.56031 5.06668 8.50272 4.92191 8.50272C4.77714 8.50272 4.63831 8.56031 4.53606 8.66279C4.32261 8.87624 4.32261 9.22104 4.53606 9.43448L6.82377 11.7222C7.03722 11.9356 7.38202 11.9356 7.59546 11.7222L13.3859 5.93177C13.5993 5.71832 13.5993 5.37352 13.3859 5.16008C13.2836 5.05759 13.1448 5 13 5C12.8553 5 12.7165 5.05759 12.6142 5.16008L7.20688 10.5619Z" fill="black"/>
</mask>
<g mask="url(#mask0_2102_784)">
<rect x="0.960938" width="16" height="16" fill="white"/>
</g>
</svg>
