<svg width="41" height="42" viewBox="0 0 41 42" fill="none" xmlns="http://www.w3.org/2000/svg">
<path fill-rule="evenodd" clip-rule="evenodd" d="M34.8602 12.4118C38.1018 12.4118 40.7297 9.78399 40.7297 6.54235C40.7297 3.30072 38.1018 0.672852 34.8602 0.672852C31.6185 0.672852 28.9907 3.30072 28.9907 6.54235C28.9907 9.78399 31.6185 12.4118 34.8602 12.4118Z" fill="#8055FA"/>
<path fill-rule="evenodd" clip-rule="evenodd" d="M34.86 26.4952C38.1016 26.4952 40.7295 23.8677 40.7295 20.6265C40.7295 17.3853 38.1016 14.7578 34.86 14.7578C31.6184 14.7578 28.9905 17.3853 28.9905 20.6265C28.9905 23.8677 31.6184 26.4952 34.86 26.4952Z" fill="#7550FB"/>
<path fill-rule="evenodd" clip-rule="evenodd" d="M34.86 41.1033C38.1016 41.1033 40.7295 38.4754 40.7295 35.2338C40.7295 31.9921 38.1016 29.3643 34.86 29.3643C31.6184 29.3643 28.9905 31.9921 28.9905 35.2338C28.9905 38.4754 31.6184 41.1033 34.86 41.1033Z" fill="#6A4AFC"/>
<path d="M20.2527 26.4943C23.4939 26.4943 26.1214 23.8667 26.1214 20.6255C26.1214 17.3843 23.4939 14.7568 20.2527 14.7568C17.0115 14.7568 14.384 17.3843 14.384 20.6255C14.384 23.8667 17.0115 26.4943 20.2527 26.4943Z" fill="#6045FD"/>
<path d="M20.2527 26.4943C23.4939 26.4943 26.1214 23.8667 26.1214 20.6255C26.1214 17.3843 23.4939 14.7568 20.2527 14.7568C17.0115 14.7568 14.384 17.3843 14.384 20.6255C14.384 23.8667 17.0115 26.4943 20.2527 26.4943Z" stroke="#A0A3BD"/>
<path fill-rule="evenodd" clip-rule="evenodd" d="M20.2521 41.1023C23.4933 41.1023 26.1208 38.4744 26.1208 35.2328C26.1208 31.9911 23.4933 29.3633 20.2521 29.3633C17.0109 29.3633 14.3834 31.9911 14.3834 35.2328C14.3834 38.4744 17.0109 41.1023 20.2521 41.1023Z" fill="#553FFE"/>
<path fill-rule="evenodd" clip-rule="evenodd" d="M6.16833 41.1033C9.40996 41.1033 12.0378 38.4754 12.0378 35.2338C12.0378 31.9921 9.40996 29.3643 6.16833 29.3643C2.92669 29.3643 0.298828 31.9921 0.298828 35.2338C0.298828 38.4754 2.92669 41.1033 6.16833 41.1033Z" fill="#4A3AFF"/>
</svg>
