<svg width="264" height="35" fill="none" xmlns="http://www.w3.org/2000/svg"><path d="M54.817 28.696V26.51c1.249 2.091 3.621 2.56 4.963 2.56 3.996 0 7.398-3.403 7.398-8.398 0-4.776-3.059-8.428-7.554-8.428-1.53 0-3.278.53-4.37 2.185V6.377h-5.431v22.319h4.994zm.312-8.085c0-2.248 1.436-3.621 3.34-3.621 1.78 0 3.247 1.373 3.247 3.62 0 2.248-1.468 3.716-3.247 3.716-1.904 0-3.34-1.436-3.34-3.715zM80.837 12.37c-.25-.094-.594-.125-1-.125-2.122 0-3.683 1.155-4.526 3.122V12.62h-5.4v16.076h5.432v-5.9c0-3.371 1.53-5.463 4.276-5.463.562 0 .968.063 1.218.188v-5.15zM82.928 28.696h5.431V12.62h-5.431v16.076zm-.219-20.571c0 1.623 1.249 2.81 2.903 2.81 1.655 0 2.934-1.187 2.934-2.81s-1.28-2.81-2.934-2.81c-1.654 0-2.903 1.187-2.903 2.81zM95.814 20.736l-5.525 7.96h6.024l2.622-4.246 2.622 4.246h6.025l-5.525-7.96 5.65-8.116h-6.181l-2.59 4.464-2.592-4.464h-6.18l5.65 8.116z" fill="#170F49"/><path d="M113.964 15.773h2.061v6.43c0 3.746 2.122 5.806 5.618 5.806 1.592 0 2.81-.343 3.652-.75v-4.588c-.655.468-1.435.593-2.091.593-.999 0-1.748-.593-1.748-1.966v-5.525h3.402v-4.214h-3.402v-4.34h-5.275v4.34h-2.217v4.214zM141.993 20.892c.157-.5.313-1.467.313-2.31 0-4.401-3.122-7.398-7.711-7.398-4.744 0-8.365 3.683-8.365 8.428 0 4.745 3.527 8.397 9.021 8.397 2.716 0 4.838-.687 6.961-2.59l-2.747-3.435c-.78.75-2.06 1.499-3.808 1.499-1.842 0-3.59-.78-3.84-2.591h10.176zm-7.522-5.4c1.404 0 2.497.874 2.59 2.247v.031h-5.337c.093-1.467 1.342-2.278 2.747-2.278zM144.975 11.559v16.075h5.432v-8.459c0-1.998 1.03-3.246 2.559-3.246 1.624 0 2.498.998 2.498 2.871v8.834h5.431v-8.459c0-1.998 1.093-3.246 2.56-3.246 1.623 0 2.497.998 2.497 2.871v8.834h5.431v-9.801c0-4.152-2.31-6.65-6.211-6.65-2.716 0-4.183 1.218-5.276 2.623-1.092-1.717-2.84-2.622-5.213-2.622-1.904 0-3.434.655-4.526 2.279v-1.904h-5.182zM175.063 33.877h5.431v-7.803c1.03 1.498 2.841 1.935 4.37 1.935 4.495 0 7.554-3.652 7.554-8.428 0-4.995-3.496-8.397-7.491-8.397-1.311 0-3.528.468-4.87 2.56v-2.185h-4.994v22.318zm5.306-14.234c0-2.279 1.436-3.714 3.34-3.714 1.779 0 3.247 1.467 3.247 3.714 0 2.248-1.468 3.621-3.247 3.621-1.904 0-3.34-1.373-3.34-3.62zM194.964 22.827c0 3.371 1.935 5.182 5.307 5.182 1.092 0 1.935-.187 2.528-.468v-4.37c-.406.156-.78.187-1.061.187-1.249 0-1.343-.78-1.343-1.53V5.315h-5.431v17.512zM209.514 28.009c2.123 0 3.528-.936 4.152-2.154v1.78h5.026V17.582c0-3.995-2.747-6.4-7.398-6.4-3.153 0-5.744 1.374-7.118 3.122l2.841 3.403c.843-.968 2.154-1.904 3.996-1.904 1.342 0 2.497.468 2.497 1.81v.031l-4.152.812c-3.371.718-5.244 2.341-5.244 4.714 0 2.84 2.279 4.838 5.4 4.838zm3.996-7.086v.25c0 1.78-.999 2.934-2.716 2.934-.968 0-1.498-.5-1.498-1.28s.624-1.186 1.592-1.405l2.622-.499zM220.627 15.773h2.06v6.43c0 3.746 2.122 5.806 5.619 5.806 1.592 0 2.809-.343 3.652-.75v-4.588c-.656.468-1.436.593-2.092.593-.999 0-1.748-.593-1.748-1.966v-5.525h3.403v-4.214h-3.403v-4.34h-5.275v4.34h-2.216v4.214zM248.656 20.892c.156-.5.312-1.467.312-2.31 0-4.401-3.122-7.398-7.71-7.398-4.745 0-8.366 3.683-8.366 8.428 0 4.745 3.527 8.397 9.021 8.397 2.716 0 4.839-.687 6.961-2.59l-2.747-3.435c-.78.75-2.06 1.499-3.808 1.499-1.842 0-3.59-.78-3.839-2.591h10.176zm-7.523-5.4c1.405 0 2.497.874 2.591 2.247v.031h-5.338c.094-1.467 1.342-2.278 2.747-2.278zM257.194 28.009c3.995 0 6.68-2.216 6.68-5.088 0-3.184-2.466-4.027-4.995-5.026-2.278-.968-3.246-1.124-3.246-1.717s.718-.936 1.561-.936c1.498 0 2.341.718 2.872 1.623l3.371-2.435c-.999-1.904-3.34-3.246-6.087-3.246-3.621 0-6.649 1.748-6.649 4.963 0 2.591 1.779 3.87 4.932 4.995 2.216.78 3.309 1.06 3.309 1.904 0 .593-.593.905-1.686.905-1.623 0-2.872-.999-3.621-2.279l-3.465 2.654c1.343 2.372 4.027 3.683 7.024 3.683z" fill="#4A3AFF"/><path fill-rule="evenodd" clip-rule="evenodd" d="M30.805 10.228a5.068 5.068 0 1 0 0-10.136 5.068 5.068 0 0 0 0 10.136z" fill="#8055FA"/><path fill-rule="evenodd" clip-rule="evenodd" d="M30.805 22.389a5.068 5.068 0 1 0 0-10.136 5.068 5.068 0 0 0 0 10.136z" fill="#7550FB"/><path fill-rule="evenodd" clip-rule="evenodd" d="M30.805 35.004a5.068 5.068 0 1 0 0-10.137 5.068 5.068 0 0 0 0 10.137z" fill="#6A4AFC"/><path d="M18.192 22.389a5.068 5.068 0 1 0 0-10.136 5.068 5.068 0 0 0 0 10.136z" fill="#6045FD"/><path d="M18.192 22.389a5.068 5.068 0 1 0 0-10.136 5.068 5.068 0 0 0 0 10.136z" stroke="#A0A3BD"/><path fill-rule="evenodd" clip-rule="evenodd" d="M18.19 35.004a5.068 5.068 0 1 0 0-10.137 5.068 5.068 0 0 0 0 10.137z" fill="#553FFE"/><path fill-rule="evenodd" clip-rule="evenodd" d="M6.03 35.004a5.068 5.068 0 1 0 0-10.137 5.068 5.068 0 0 0 0 10.137z" fill="#4A3AFF"/></svg>