<svg width="36" height="29" fill="none" xmlns="http://www.w3.org/2000/svg"><path d="M35.257 12.766a5.339 5.339 0 0 0-3.55-5 1.335 1.335 0 0 0-1.789 1.257l.019 10.208a1.335 1.335 0 0 0 1.788 1.252 5.338 5.338 0 0 0 3.532-5.034v-2.683zM28.793 1.369a1.244 1.244 0 1 0-2.489 0v.963L3.714 9.625a.622.622 0 0 0-.43.593v7.413a.622.622 0 0 0 .435.593l1.617.508a.622.622 0 0 1 .436.593v3.225a5.606 5.606 0 0 0 5.6 5.575h.026a5.606 5.606 0 0 0 5.573-5.621v-.125l9.333 2.924v.954a1.244 1.244 0 0 0 2.49 0V1.369zm-14.31 21.14a3.109 3.109 0 0 1-3.096 3.127h-.015a3.111 3.111 0 0 1-3.111-3.091v-2.05a.622.622 0 0 1 .809-.593l4.977 1.56a.623.623 0 0 1 .436.594v.454z" fill="#4A3AFF"/><path d="M3.282 9.643c0-.334-.145-.654-.403-.89a1.442 1.442 0 0 0-.972-.37c-.365 0-.715.133-.973.37a1.209 1.209 0 0 0-.403.89l.007 8.82c0 .165.036.329.105.482.069.152.17.291.298.408.128.117.28.21.446.273.167.064.346.096.527.096h-.007c.359 0 .704-.128.96-.358.258-.23.406-.543.415-.871v-8.85z" fill="#fff"/></svg>