<svg width="39" height="33" fill="none" xmlns="http://www.w3.org/2000/svg"><path fill="#fff" d="M2.108 2.386h34.046v28.168H2.108z"/><rect x="7.276" y="10.843" width="23.709" height="5.662" rx=".68" fill="#4A3AFF"/><rect x="7.276" y="19.276" width="10.841" height="7.32" rx=".68" fill="#4A3AFF"/><rect x="20.145" y="19.276" width="10.841" height="2.308" rx=".68" fill="#4A3AFF"/><rect x="20.145" y="24.288" width="10.841" height="2.308" rx=".68" fill="#4A3AFF"/><path d="M.68 28.23a4.683 4.683 0 0 0 4.682 4.683H33.46a4.683 4.683 0 0 0 4.683-4.683V5.596A4.683 4.683 0 0 0 33.46.913H5.362A4.683 4.683 0 0 0 .68 5.596V28.23zM23.312 4.815c-.007.277-.09.547-.24.78a1.507 1.507 0 0 1-2.641 0 1.518 1.518 0 0 1-.24-.78c.006-.277.09-.547.24-.78a1.508 1.508 0 0 1 2.64 0c.151.233.234.503.241.78zm5.464 0c-.008.277-.09.547-.24.78a1.507 1.507 0 0 1-2.642 0 1.518 1.518 0 0 1-.24-.78c.007-.277.09-.547.24-.78a1.509 1.509 0 0 1 2.641 0c.15.233.234.503.24.78zm5.463 0c-.007.277-.09.547-.24.78a1.507 1.507 0 0 1-2.641 0 1.517 1.517 0 0 1-.24-.78c.006-.277.09-.547.24-.78a1.534 1.534 0 0 1 1.32-.78 1.561 1.561 0 0 1 1.417.922c.094.2.143.417.144.638zM3.801 9.106a.39.39 0 0 1 .39-.39h30.44a.39.39 0 0 1 .39.39v19.122a1.561 1.561 0 0 1-1.561 1.561H5.362a1.561 1.561 0 0 1-1.56-1.56V9.105z" fill="#4A3AFF"/></svg>