<svg width="19" height="18" fill="none" xmlns="http://www.w3.org/2000/svg"><path opacity=".2" d="M3.773 6.188h12.375V3.374a.562.562 0 0 0-.562-.563H4.336a.562.562 0 0 0-.563.563v2.813z" fill="#EF5DA8"/><path fill-rule="evenodd" clip-rule="evenodd" d="M3.21 3.375c0-.621.505-1.125 1.126-1.125h11.25c.621 0 1.125.504 1.125 1.125v11.25c0 .621-.504 1.125-1.125 1.125H4.336a1.125 1.125 0 0 1-1.125-1.125V3.375zm12.376 0H4.336v11.25h11.25V3.375z" fill="#EF5DA8"/><path fill-rule="evenodd" clip-rule="evenodd" d="M13.336 1.125c.31 0 .562.252.562.563v2.25a.562.562 0 1 1-1.125 0v-2.25c0-.311.252-.563.563-.563zM6.586 1.125c.31 0 .562.252.562.563v2.25a.563.563 0 0 1-1.125 0v-2.25c0-.311.252-.563.563-.563zM3.21 6.188c0-.311.253-.563.563-.563h12.375a.562.562 0 1 1 0 1.125H3.773a.563.563 0 0 1-.562-.563z" fill="#EF5DA8"/></svg>