<svg width="20" height="18" viewBox="0 0 20 18" fill="none" xmlns="http://www.w3.org/2000/svg">
<g opacity="0.8">
<path opacity="0.2" d="M10 3.9375C4.375 3.9375 2.125 9 2.125 9C2.125 9 4.375 14.0625 10 14.0625C15.625 14.0625 17.875 9 17.875 9C17.875 9 15.625 3.9375 10 3.9375ZM10 11.8125C9.44374 11.8125 8.89997 11.6476 8.43746 11.3385C7.97495 11.0295 7.61446 10.5902 7.40159 10.0763C7.18872 9.56238 7.13302 8.99688 7.24154 8.45131C7.35006 7.90574 7.61793 7.4046 8.01126 7.01126C8.4046 6.61793 8.90574 6.35006 9.45131 6.24154C9.99688 6.13302 10.5624 6.18872 11.0763 6.40159C11.5902 6.61446 12.0295 6.97495 12.3385 7.43746C12.6476 7.89997 12.8125 8.44374 12.8125 9C12.8125 9.74592 12.5162 10.4613 11.9887 10.9887C11.4613 11.5162 10.7459 11.8125 10 11.8125Z" fill="#EF5DA8"/>
<path fill-rule="evenodd" clip-rule="evenodd" d="M3.55538 6.071C4.89628 4.7301 7.00042 3.375 10 3.375C12.9996 3.375 15.1037 4.7301 16.4446 6.071C17.1134 6.73983 17.5957 7.40768 17.9116 7.90928C18.0697 8.16051 18.187 8.37132 18.2656 8.52147C18.305 8.59658 18.3347 8.65664 18.3552 8.69912C18.3654 8.72037 18.3733 8.73724 18.3789 8.74941L18.3857 8.76411L18.3878 8.76875L18.3885 8.77038L18.3888 8.77102C18.3889 8.77129 18.389 8.77155 17.875 9C18.389 9.22845 18.3889 9.22871 18.3888 9.22898L18.3885 9.22962L18.3878 9.23125L18.3857 9.23589L18.3789 9.25059C18.3733 9.26276 18.3654 9.27963 18.3552 9.30088C18.3347 9.34336 18.305 9.40342 18.2656 9.47853C18.187 9.62868 18.0697 9.83949 17.9116 10.0907C17.5957 10.5923 17.1134 11.2602 16.4446 11.929C15.1037 13.2699 12.9996 14.625 10 14.625C7.00042 14.625 4.89628 13.2699 3.55538 11.929C2.88655 11.2602 2.40427 10.5923 2.08845 10.0907C1.93026 9.83949 1.81304 9.62868 1.73439 9.47853C1.69504 9.40342 1.66528 9.34336 1.64483 9.30088C1.6346 9.27963 1.62669 9.26276 1.62106 9.25059L1.61432 9.23589L1.61223 9.23125L1.6115 9.22962L1.61121 9.22898C1.61109 9.22871 1.61098 9.22845 2.125 9C1.61098 8.77155 1.61109 8.77129 1.61121 8.77102L1.6115 8.77038L1.61223 8.76875L1.61432 8.76411L1.62106 8.74941C1.62669 8.73724 1.6346 8.72037 1.64483 8.69912C1.66528 8.65664 1.69504 8.59658 1.73439 8.52147C1.81304 8.37132 1.93026 8.16051 2.08845 7.90928C2.40427 7.40768 2.88655 6.73983 3.55538 6.071ZM2.125 9L1.61098 8.77155C1.54634 8.91699 1.54634 9.08301 1.61098 9.22845L2.125 9ZM2.75394 9C2.82011 9.12396 2.91515 9.29228 3.04046 9.49131C3.3223 9.93893 3.75407 10.5367 4.35087 11.1335C5.54122 12.3239 7.37458 13.5 10 13.5C12.6254 13.5 14.4588 12.3239 15.6491 11.1335C16.2459 10.5367 16.6777 9.93893 16.9595 9.49131C17.0849 9.29228 17.1799 9.12396 17.2461 9C17.1799 8.87604 17.0849 8.70772 16.9595 8.50869C16.6777 8.06107 16.2459 7.4633 15.6491 6.8665C14.4588 5.67615 12.6254 4.5 10 4.5C7.37458 4.5 5.54122 5.67615 4.35087 6.8665C3.75407 7.4633 3.3223 8.06107 3.04046 8.50869C2.91515 8.70772 2.82011 8.87604 2.75394 9ZM17.875 9L18.389 9.22845C18.4537 9.08301 18.4537 8.91699 18.389 8.77155L17.875 9Z" fill="#EF5DA8"/>
<path fill-rule="evenodd" clip-rule="evenodd" d="M10 6.75C8.75736 6.75 7.75 7.75736 7.75 9C7.75 10.2426 8.75736 11.25 10 11.25C11.2426 11.25 12.25 10.2426 12.25 9C12.25 7.75736 11.2426 6.75 10 6.75ZM6.625 9C6.625 7.13604 8.13604 5.625 10 5.625C11.864 5.625 13.375 7.13604 13.375 9C13.375 10.864 11.864 12.375 10 12.375C8.13604 12.375 6.625 10.864 6.625 9Z" fill="#EF5DA8"/>
</g>
<path d="M19 3L1 14" stroke="#EF5DA8" stroke-linecap="round"/>
</svg>
